<mxfile host="app.diagrams.net" agent="Mozilla/5.0 (Windows NT 10.0; Win64; x64) AppleWebKit/537.36 (KHTML, like Gecko) Chrome/128.0.0.0 Safari/537.36" version="24.7.16">
  <diagram name="1 oldal" id="Toe7uhR44ZgIOH-g8r_2">
    <mxGraphModel dx="3033" dy="1148" grid="1" gridSize="10" guides="1" tooltips="1" connect="1" arrows="1" fold="1" page="1" pageScale="1" pageWidth="827" pageHeight="1169" math="0" shadow="0">
      <root>
        <mxCell id="0" />
        <mxCell id="1" parent="0" />
        <mxCell id="5AxgItoX3C3v96-m-5ek-1" value="" style="outlineConnect=0;dashed=0;verticalLabelPosition=bottom;verticalAlign=top;align=center;html=1;shape=mxgraph.aws3.management_console;fillColor=#D2D3D3;gradientColor=none;" vertex="1" parent="1">
          <mxGeometry x="94.85" y="97.5" width="63" height="63" as="geometry" />
        </mxCell>
        <mxCell id="5AxgItoX3C3v96-m-5ek-13" style="edgeStyle=orthogonalEdgeStyle;rounded=0;orthogonalLoop=1;jettySize=auto;html=1;exitX=0;exitY=0.75;exitDx=0;exitDy=0;exitPerimeter=0;flowAnimation=1;fillColor=#60a917;strokeColor=#2D7600;strokeWidth=2;" edge="1" parent="1" source="5AxgItoX3C3v96-m-5ek-2">
          <mxGeometry relative="1" as="geometry">
            <mxPoint x="160" y="150" as="targetPoint" />
          </mxGeometry>
        </mxCell>
        <mxCell id="5AxgItoX3C3v96-m-5ek-19" style="edgeStyle=orthogonalEdgeStyle;rounded=0;orthogonalLoop=1;jettySize=auto;html=1;exitX=0.75;exitY=1;exitDx=0;exitDy=0;exitPerimeter=0;entryX=0.5;entryY=0;entryDx=0;entryDy=0;fillColor=#fa6800;strokeColor=#C73500;strokeWidth=2;" edge="1" parent="1" source="5AxgItoX3C3v96-m-5ek-2" target="5AxgItoX3C3v96-m-5ek-18">
          <mxGeometry relative="1" as="geometry" />
        </mxCell>
        <mxCell id="5AxgItoX3C3v96-m-5ek-2" value="" style="sketch=0;points=[[0,0,0],[0.25,0,0],[0.5,0,0],[0.75,0,0],[1,0,0],[0,1,0],[0.25,1,0],[0.5,1,0],[0.75,1,0],[1,1,0],[0,0.25,0],[0,0.5,0],[0,0.75,0],[1,0.25,0],[1,0.5,0],[1,0.75,0]];outlineConnect=0;fontColor=#232F3E;fillColor=#DD344C;strokeColor=#ffffff;dashed=0;verticalLabelPosition=bottom;verticalAlign=top;align=center;html=1;fontSize=12;fontStyle=0;aspect=fixed;shape=mxgraph.aws4.resourceIcon;resIcon=mxgraph.aws4.cognito;" vertex="1" parent="1">
          <mxGeometry x="482" y="90" width="78" height="78" as="geometry" />
        </mxCell>
        <mxCell id="5AxgItoX3C3v96-m-5ek-25" style="edgeStyle=orthogonalEdgeStyle;rounded=0;orthogonalLoop=1;jettySize=auto;html=1;exitX=0;exitY=0.75;exitDx=0;exitDy=0;exitPerimeter=0;flowAnimation=1;fillColor=#ffff88;strokeColor=#ca58f3;strokeWidth=2;" edge="1" parent="1" source="5AxgItoX3C3v96-m-5ek-3" target="5AxgItoX3C3v96-m-5ek-1">
          <mxGeometry relative="1" as="geometry" />
        </mxCell>
        <mxCell id="5AxgItoX3C3v96-m-5ek-27" style="edgeStyle=orthogonalEdgeStyle;rounded=0;orthogonalLoop=1;jettySize=auto;html=1;exitX=0.5;exitY=1;exitDx=0;exitDy=0;exitPerimeter=0;fillColor=#1ba1e2;strokeColor=#006EAF;strokeWidth=2;" edge="1" parent="1" source="5AxgItoX3C3v96-m-5ek-3" target="5AxgItoX3C3v96-m-5ek-4">
          <mxGeometry relative="1" as="geometry" />
        </mxCell>
        <mxCell id="5AxgItoX3C3v96-m-5ek-3" value="" style="sketch=0;points=[[0,0,0],[0.25,0,0],[0.5,0,0],[0.75,0,0],[1,0,0],[0,1,0],[0.25,1,0],[0.5,1,0],[0.75,1,0],[1,1,0],[0,0.25,0],[0,0.5,0],[0,0.75,0],[1,0.25,0],[1,0.5,0],[1,0.75,0]];outlineConnect=0;fontColor=#232F3E;fillColor=#DD344C;strokeColor=#ffffff;dashed=0;verticalLabelPosition=bottom;verticalAlign=top;align=center;html=1;fontSize=12;fontStyle=0;aspect=fixed;shape=mxgraph.aws4.resourceIcon;resIcon=mxgraph.aws4.cognito;" vertex="1" parent="1">
          <mxGeometry x="290" y="280" width="78" height="78" as="geometry" />
        </mxCell>
        <mxCell id="5AxgItoX3C3v96-m-5ek-36" value="" style="edgeStyle=orthogonalEdgeStyle;rounded=0;orthogonalLoop=1;jettySize=auto;html=1;entryX=0.25;entryY=1;entryDx=0;entryDy=0;entryPerimeter=0;flowAnimation=1;fillColor=#1ba1e2;strokeColor=#006EAF;strokeWidth=2;" edge="1" parent="1" source="5AxgItoX3C3v96-m-5ek-4" target="5AxgItoX3C3v96-m-5ek-3">
          <mxGeometry relative="1" as="geometry">
            <mxPoint x="300" y="450" as="targetPoint" />
            <Array as="points">
              <mxPoint x="483" y="470" />
              <mxPoint x="483" y="458" />
              <mxPoint x="310" y="458" />
            </Array>
          </mxGeometry>
        </mxCell>
        <mxCell id="5AxgItoX3C3v96-m-5ek-4" value="" style="sketch=0;outlineConnect=0;fontColor=#232F3E;gradientColor=none;fillColor=#DD344C;strokeColor=none;dashed=0;verticalLabelPosition=bottom;verticalAlign=top;align=center;html=1;fontSize=12;fontStyle=0;aspect=fixed;pointerEvents=1;shape=mxgraph.aws4.sts_alternate;" vertex="1" parent="1">
          <mxGeometry x="503" y="450" width="36" height="45.29" as="geometry" />
        </mxCell>
        <mxCell id="5AxgItoX3C3v96-m-5ek-17" style="edgeStyle=orthogonalEdgeStyle;rounded=0;orthogonalLoop=1;jettySize=auto;html=1;exitX=0;exitY=0.5;exitDx=0;exitDy=0;exitPerimeter=0;flowAnimation=1;fillColor=#e3c800;strokeColor=#B09500;strokeWidth=2;" edge="1" parent="1" source="5AxgItoX3C3v96-m-5ek-5" target="5AxgItoX3C3v96-m-5ek-2">
          <mxGeometry relative="1" as="geometry">
            <mxPoint x="570" y="138" as="targetPoint" />
            <Array as="points">
              <mxPoint x="620" y="138" />
              <mxPoint x="620" y="139" />
            </Array>
          </mxGeometry>
        </mxCell>
        <mxCell id="5AxgItoX3C3v96-m-5ek-5" value="" style="shape=cylinder3;whiteSpace=wrap;html=1;boundedLbl=1;backgroundOutline=1;size=15;" vertex="1" parent="1">
          <mxGeometry x="710" y="98" width="60" height="80" as="geometry" />
        </mxCell>
        <mxCell id="5AxgItoX3C3v96-m-5ek-6" value="&lt;font style=&quot;font-size: 14px;&quot;&gt;&lt;b&gt;Client&lt;/b&gt;&lt;/font&gt;" style="text;html=1;align=center;verticalAlign=middle;resizable=0;points=[];autosize=1;strokeColor=none;fillColor=none;" vertex="1" parent="1">
          <mxGeometry x="73" y="60" width="60" height="30" as="geometry" />
        </mxCell>
        <mxCell id="5AxgItoX3C3v96-m-5ek-7" value="&lt;font style=&quot;font-size: 14px;&quot;&gt;&lt;b&gt;Cognito User Pools&lt;/b&gt;&lt;/font&gt;" style="text;html=1;align=center;verticalAlign=middle;resizable=0;points=[];autosize=1;strokeColor=none;fillColor=none;" vertex="1" parent="1">
          <mxGeometry x="453" y="50" width="150" height="30" as="geometry" />
        </mxCell>
        <mxCell id="5AxgItoX3C3v96-m-5ek-8" value="&lt;font style=&quot;font-size: 14px;&quot;&gt;&lt;b&gt;Cognito Identity Pools&lt;/b&gt;&lt;/font&gt;" style="text;html=1;align=center;verticalAlign=middle;resizable=0;points=[];autosize=1;strokeColor=none;fillColor=none;" vertex="1" parent="1">
          <mxGeometry x="244" y="240" width="170" height="30" as="geometry" />
        </mxCell>
        <mxCell id="5AxgItoX3C3v96-m-5ek-9" value="&lt;span style=&quot;font-size: 14px;&quot;&gt;&lt;b&gt;Internal DB of users&lt;/b&gt;&lt;/span&gt;" style="text;html=1;align=center;verticalAlign=middle;resizable=0;points=[];autosize=1;strokeColor=none;fillColor=none;strokeWidth=2;" vertex="1" parent="1">
          <mxGeometry x="660" y="190" width="160" height="30" as="geometry" />
        </mxCell>
        <mxCell id="5AxgItoX3C3v96-m-5ek-10" value="" style="sketch=0;outlineConnect=0;fontColor=#232F3E;gradientColor=none;fillColor=#DD344C;strokeColor=none;dashed=0;verticalLabelPosition=bottom;verticalAlign=top;align=center;html=1;fontSize=12;fontStyle=0;aspect=fixed;pointerEvents=1;shape=mxgraph.aws4.permissions;" vertex="1" parent="1">
          <mxGeometry x="-29.999999999999993" y="310" width="38.15" height="48" as="geometry" />
        </mxCell>
        <mxCell id="5AxgItoX3C3v96-m-5ek-11" value="" style="sketch=0;outlineConnect=0;fontColor=#232F3E;gradientColor=none;fillColor=#DD344C;strokeColor=none;dashed=0;verticalLabelPosition=bottom;verticalAlign=top;align=center;html=1;fontSize=12;fontStyle=0;aspect=fixed;pointerEvents=1;shape=mxgraph.aws4.temporary_security_credential;" vertex="1" parent="1">
          <mxGeometry x="180" y="300" width="37.51" height="38" as="geometry" />
        </mxCell>
        <mxCell id="5AxgItoX3C3v96-m-5ek-12" style="edgeStyle=orthogonalEdgeStyle;rounded=0;orthogonalLoop=1;jettySize=auto;html=1;exitX=1;exitY=0.25;exitDx=0;exitDy=0;exitPerimeter=0;fillColor=#60a917;strokeColor=#2D7600;strokeWidth=2;" edge="1" parent="1" source="5AxgItoX3C3v96-m-5ek-1">
          <mxGeometry relative="1" as="geometry">
            <mxPoint x="480" y="113" as="targetPoint" />
          </mxGeometry>
        </mxCell>
        <mxCell id="5AxgItoX3C3v96-m-5ek-14" value="1) Login and get JWT" style="text;html=1;align=center;verticalAlign=middle;resizable=0;points=[];autosize=1;strokeColor=none;fillColor=none;" vertex="1" parent="1">
          <mxGeometry x="255" y="114" width="140" height="30" as="geometry" />
        </mxCell>
        <mxCell id="5AxgItoX3C3v96-m-5ek-16" style="edgeStyle=orthogonalEdgeStyle;rounded=0;orthogonalLoop=1;jettySize=auto;html=1;exitX=1;exitY=0.25;exitDx=0;exitDy=0;exitPerimeter=0;entryX=0.167;entryY=0.15;entryDx=0;entryDy=0;entryPerimeter=0;fillColor=#e3c800;strokeColor=#B09500;strokeWidth=2;" edge="1" parent="1" source="5AxgItoX3C3v96-m-5ek-2" target="5AxgItoX3C3v96-m-5ek-5">
          <mxGeometry relative="1" as="geometry" />
        </mxCell>
        <mxCell id="5AxgItoX3C3v96-m-5ek-20" style="edgeStyle=orthogonalEdgeStyle;rounded=0;orthogonalLoop=1;jettySize=auto;html=1;exitX=0;exitY=0.25;exitDx=0;exitDy=0;flowAnimation=1;fillColor=#fa6800;strokeColor=#C73500;strokeWidth=2;" edge="1" parent="1" source="5AxgItoX3C3v96-m-5ek-18">
          <mxGeometry relative="1" as="geometry">
            <mxPoint x="520" y="170" as="targetPoint" />
          </mxGeometry>
        </mxCell>
        <mxCell id="5AxgItoX3C3v96-m-5ek-18" value="&lt;font style=&quot;font-size: 16px;&quot;&gt;OIDC&lt;br&gt;SAML&lt;/font&gt;" style="whiteSpace=wrap;html=1;" vertex="1" parent="1">
          <mxGeometry x="690" y="278" width="120" height="160" as="geometry" />
        </mxCell>
        <mxCell id="5AxgItoX3C3v96-m-5ek-21" value="2) Sends JWT for Temp AWS credentials&lt;div&gt;&lt;br&gt;&lt;/div&gt;" style="text;html=1;align=center;verticalAlign=middle;resizable=0;points=[];autosize=1;strokeColor=none;fillColor=none;" vertex="1" parent="1">
          <mxGeometry x="155" y="200" width="240" height="40" as="geometry" />
        </mxCell>
        <mxCell id="5AxgItoX3C3v96-m-5ek-22" style="edgeStyle=orthogonalEdgeStyle;rounded=0;orthogonalLoop=1;jettySize=auto;html=1;exitX=0.75;exitY=1;exitDx=0;exitDy=0;exitPerimeter=0;entryX=0;entryY=0.25;entryDx=0;entryDy=0;entryPerimeter=0;fillColor=#ffff88;strokeColor=#ca58f3;strokeWidth=2;" edge="1" parent="1" source="5AxgItoX3C3v96-m-5ek-1" target="5AxgItoX3C3v96-m-5ek-3">
          <mxGeometry relative="1" as="geometry" />
        </mxCell>
        <mxCell id="5AxgItoX3C3v96-m-5ek-23" style="edgeStyle=orthogonalEdgeStyle;rounded=0;orthogonalLoop=1;jettySize=auto;html=1;exitX=1;exitY=0.25;exitDx=0;exitDy=0;exitPerimeter=0;entryX=0.103;entryY=1.026;entryDx=0;entryDy=0;entryPerimeter=0;fillColor=#0050ef;strokeColor=#001DBC;strokeWidth=2;" edge="1" parent="1" source="5AxgItoX3C3v96-m-5ek-3" target="5AxgItoX3C3v96-m-5ek-2">
          <mxGeometry relative="1" as="geometry" />
        </mxCell>
        <mxCell id="5AxgItoX3C3v96-m-5ek-24" value="3) validate JWT" style="text;html=1;align=center;verticalAlign=middle;resizable=0;points=[];autosize=1;strokeColor=none;fillColor=none;" vertex="1" parent="1">
          <mxGeometry x="382" y="310" width="110" height="30" as="geometry" />
        </mxCell>
        <mxCell id="5AxgItoX3C3v96-m-5ek-26" value="5) Sends back AWS temp credentials" style="text;html=1;align=center;verticalAlign=middle;resizable=0;points=[];autosize=1;strokeColor=none;fillColor=none;" vertex="1" parent="1">
          <mxGeometry x="73" y="340" width="220" height="30" as="geometry" />
        </mxCell>
        <mxCell id="5AxgItoX3C3v96-m-5ek-28" value="4) Get temp AWS credentials" style="text;html=1;align=center;verticalAlign=middle;resizable=0;points=[];autosize=1;strokeColor=none;fillColor=none;" vertex="1" parent="1">
          <mxGeometry x="325" y="408" width="180" height="30" as="geometry" />
        </mxCell>
        <mxCell id="5AxgItoX3C3v96-m-5ek-40" style="edgeStyle=orthogonalEdgeStyle;rounded=0;orthogonalLoop=1;jettySize=auto;html=1;exitX=0;exitY=0.25;exitDx=0;exitDy=0;strokeWidth=2;strokeColor=#00FFFF;flowAnimation=1;" edge="1" parent="1" source="5AxgItoX3C3v96-m-5ek-29">
          <mxGeometry relative="1" as="geometry">
            <mxPoint x="90" y="110" as="targetPoint" />
            <Array as="points">
              <mxPoint x="-80" y="523" />
              <mxPoint x="-80" y="110" />
            </Array>
          </mxGeometry>
        </mxCell>
        <mxCell id="5AxgItoX3C3v96-m-5ek-29" value="AWS Services" style="whiteSpace=wrap;html=1;" vertex="1" parent="1">
          <mxGeometry x="-60" y="500" width="200" height="90" as="geometry" />
        </mxCell>
        <mxCell id="5AxgItoX3C3v96-m-5ek-30" style="edgeStyle=orthogonalEdgeStyle;rounded=0;orthogonalLoop=1;jettySize=auto;html=1;entryX=0.08;entryY=0.022;entryDx=0;entryDy=0;entryPerimeter=0;strokeWidth=2;strokeColor=#00FFFF;" edge="1" parent="1">
          <mxGeometry relative="1" as="geometry">
            <mxPoint x="90" y="120" as="sourcePoint" />
            <mxPoint x="50" y="496.73" as="targetPoint" />
          </mxGeometry>
        </mxCell>
        <mxCell id="5AxgItoX3C3v96-m-5ek-31" value="6) Direct access to AWS" style="text;html=1;align=center;verticalAlign=middle;resizable=0;points=[];autosize=1;strokeColor=none;fillColor=none;" vertex="1" parent="1">
          <mxGeometry x="-100" y="278" width="150" height="30" as="geometry" />
        </mxCell>
        <mxCell id="5AxgItoX3C3v96-m-5ek-33" style="edgeStyle=orthogonalEdgeStyle;rounded=0;orthogonalLoop=1;jettySize=auto;html=1;exitX=0.25;exitY=1;exitDx=0;exitDy=0;exitPerimeter=0;entryX=1;entryY=1;entryDx=0;entryDy=0;entryPerimeter=0;flowAnimation=1;fillColor=#0050ef;strokeColor=#001DBC;strokeWidth=2;" edge="1" parent="1" source="5AxgItoX3C3v96-m-5ek-2" target="5AxgItoX3C3v96-m-5ek-3">
          <mxGeometry relative="1" as="geometry" />
        </mxCell>
        <mxCell id="5AxgItoX3C3v96-m-5ek-41" value="&lt;b style=&quot;font-size: 14px;&quot;&gt;&lt;font style=&quot;font-size: 14px;&quot;&gt;Cognito User Pool:&lt;/font&gt;&lt;/b&gt;&lt;div style=&quot;font-size: 14px;&quot;&gt;&lt;span style=&quot;white-space: pre;&quot;&gt;&#x9;&lt;/span&gt;Integrate with:&lt;br&gt;&lt;span style=&quot;white-space: pre;&quot;&gt;&#x9;&lt;span style=&quot;white-space: pre;&quot;&gt;&#x9;&lt;/span&gt;&lt;/span&gt;- ALB -&amp;gt; Authentication will be offloaded from the client&lt;br&gt;&lt;/div&gt;&lt;div style=&quot;font-size: 14px;&quot;&gt;&amp;nbsp; &amp;nbsp; &amp;nbsp; &lt;span style=&quot;white-space: pre;&quot;&gt;&#x9;&lt;/span&gt;&lt;span style=&quot;white-space: pre;&quot;&gt;&#x9;&lt;/span&gt;- API GW&lt;/div&gt;&lt;div style=&quot;font-size: 14px;&quot;&gt;&lt;br&gt;&lt;/div&gt;&lt;div style=&quot;font-size: 14px;&quot;&gt;&lt;span style=&quot;white-space: pre;&quot;&gt;&#x9;&lt;/span&gt;Provides a hosted UI for the Login:&lt;br&gt;&lt;span style=&quot;white-space: pre;&quot;&gt;&#x9;&lt;/span&gt;&lt;span style=&quot;white-space: pre;&quot;&gt;&#x9;&lt;/span&gt;- Customize with logo and own CSS&lt;/div&gt;&lt;div style=&quot;font-size: 14px;&quot;&gt;&lt;span style=&quot;white-space: pre;&quot;&gt;&#x9;&lt;span style=&quot;white-space: pre;&quot;&gt;&#x9;&lt;/span&gt;&lt;/span&gt;- For using custom domains -&amp;gt; create SSL certificate on ACM ( us-east-1) -&amp;gt;then define in &quot;App integration&quot; section&lt;/div&gt;&lt;div style=&quot;font-size: 14px;&quot;&gt;&lt;br&gt;&lt;/div&gt;&lt;div style=&quot;font-size: 14px;&quot;&gt;&lt;span style=&quot;white-space: pre;&quot;&gt;&#x9;&lt;/span&gt;Triggers Lambda on custom events:&lt;/div&gt;&lt;div style=&quot;font-size: 14px;&quot;&gt;&lt;span style=&quot;white-space: pre;&quot;&gt;&#x9;&lt;/span&gt;&lt;span style=&quot;white-space: pre;&quot;&gt;&#x9;&lt;/span&gt;- Authentication events: Pre-Auth / Post-Auth/ Pre-token generation&lt;/div&gt;&lt;div style=&quot;font-size: 14px;&quot;&gt;&lt;span style=&quot;white-space: pre;&quot;&gt;&#x9;&lt;span style=&quot;white-space: pre;&quot;&gt;&#x9;&lt;/span&gt;&lt;/span&gt;- Sign up: Pre-signup / Post-confirmation / Migrate user&lt;/div&gt;&lt;div style=&quot;font-size: 14px;&quot;&gt;&lt;span style=&quot;white-space: pre;&quot;&gt;&#x9;&lt;/span&gt;&lt;span style=&quot;white-space: pre;&quot;&gt;&#x9;&lt;/span&gt;- Messages: Custom messages&lt;/div&gt;&lt;div style=&quot;font-size: 14px;&quot;&gt;&lt;span style=&quot;white-space: pre;&quot;&gt;&#x9;&lt;/span&gt;&lt;span style=&quot;white-space: pre;&quot;&gt;&#x9;&lt;/span&gt;- Token creation: Pre-token generation&lt;/div&gt;&lt;div style=&quot;font-size: 14px;&quot;&gt;&lt;br&gt;&lt;/div&gt;" style="text;html=1;align=left;verticalAlign=middle;resizable=0;points=[];autosize=1;strokeColor=none;fillColor=none;" vertex="1" parent="1">
          <mxGeometry x="190" y="530" width="800" height="270" as="geometry" />
        </mxCell>
        <mxCell id="5AxgItoX3C3v96-m-5ek-43" value="&lt;b style=&quot;font-size: 14px;&quot;&gt;&lt;font style=&quot;font-size: 14px;&quot;&gt;Cognito Identity Pool:&lt;/font&gt;&lt;/b&gt;&lt;div style=&quot;font-size: 14px;&quot;&gt;&lt;span style=&quot;white-space: pre;&quot;&gt;&#x9;&lt;/span&gt;Get identities for users so they obtain temp access to AWS&lt;/div&gt;&lt;div style=&quot;font-size: 14px;&quot;&gt;&lt;span style=&quot;white-space: pre;&quot;&gt;&#x9;&lt;/span&gt;&lt;br&gt;&lt;span style=&quot;white-space: pre;&quot;&gt;&#x9;&lt;/span&gt;Can include:&lt;br&gt;&lt;/div&gt;&lt;div style=&quot;font-size: 14px;&quot;&gt;&lt;span style=&quot;white-space: pre;&quot;&gt;&#x9;&lt;/span&gt;&lt;span style=&quot;white-space: pre;&quot;&gt;&#x9;&lt;/span&gt;- Public Idp&#39;s ( google, facebook, etc.)&lt;/div&gt;&lt;div style=&quot;font-size: 14px;&quot;&gt;&lt;span style=&quot;white-space: pre;&quot;&gt;&#x9;&lt;/span&gt;&lt;span style=&quot;white-space: pre;&quot;&gt;&#x9;&lt;/span&gt;- Users in Cognito User Pools&lt;br&gt;&lt;/div&gt;&lt;div style=&quot;font-size: 14px;&quot;&gt;&lt;span style=&quot;white-space: pre;&quot;&gt;&#x9;&lt;/span&gt;&lt;span style=&quot;white-space: pre;&quot;&gt;&#x9;&lt;/span&gt;- OIDC / SAML&lt;br&gt;&lt;/div&gt;&lt;div style=&quot;font-size: 14px;&quot;&gt;&lt;span style=&quot;white-space: pre;&quot;&gt;&#x9;&lt;/span&gt;&lt;span style=&quot;white-space: pre;&quot;&gt;&#x9;&lt;/span&gt;- Developer Authenticated Identities&lt;br&gt;&lt;/div&gt;&lt;div style=&quot;font-size: 14px;&quot;&gt;&lt;span style=&quot;white-space: pre;&quot;&gt;&#x9;&lt;/span&gt;&lt;span style=&quot;white-space: pre;&quot;&gt;&#x9;&lt;/span&gt;- Guest Access ( unauthenticated )&amp;nbsp;&lt;br&gt;&lt;/div&gt;&lt;div style=&quot;font-size: 14px;&quot;&gt;&lt;br&gt;&lt;/div&gt;&lt;div style=&quot;font-size: 14px;&quot;&gt;&lt;span style=&quot;white-space: pre;&quot;&gt;&#x9;&lt;/span&gt;IAM Roles:&lt;br&gt;&lt;/div&gt;&lt;div style=&quot;font-size: 14px;&quot;&gt;&lt;span style=&quot;white-space: pre;&quot;&gt;&#x9;&lt;/span&gt;&lt;span style=&quot;white-space: pre;&quot;&gt;&#x9;&lt;/span&gt;- You can define rules to choose the ROLE for each user based on their USER ID&#39;s&lt;br&gt;&lt;/div&gt;&lt;div style=&quot;font-size: 14px;&quot;&gt;&lt;span style=&quot;white-space: pre;&quot;&gt;&#x9;&lt;/span&gt;&lt;span style=&quot;white-space: pre;&quot;&gt;&#x9;&lt;/span&gt;&lt;span style=&quot;white-space: pre;&quot;&gt;&#x9;&lt;/span&gt;- Partition your users&#39; access with POLICY VARIABLES&lt;br&gt;&lt;/div&gt;&lt;div style=&quot;font-size: 14px;&quot;&gt;&lt;span style=&quot;white-space: pre;&quot;&gt;&#x9;&lt;/span&gt;&lt;span style=&quot;white-space: pre;&quot;&gt;&#x9;&lt;/span&gt;&lt;span style=&quot;white-space: pre;&quot;&gt;&#x9;&lt;/span&gt;&lt;span style=&quot;white-space: pre;&quot;&gt;&#x9;&lt;/span&gt;&lt;span style=&quot;white-space: pre;&quot;&gt;&#x9;&lt;/span&gt;- Example: User &quot;A&quot; can only access S3 bucket that is prefixed with &quot;A&quot;, etc.&lt;br&gt;&lt;/div&gt;&lt;div style=&quot;font-size: 14px;&quot;&gt;&lt;br&gt;&lt;/div&gt;&lt;div style=&quot;font-size: 14px;&quot;&gt;&lt;span style=&quot;white-space: pre;&quot;&gt;&#x9;&lt;/span&gt;&lt;span style=&quot;white-space: pre;&quot;&gt;&#x9;&lt;/span&gt;- IAM credentials are obtained by CUP through STS&lt;br&gt;&lt;/div&gt;&lt;div style=&quot;font-size: 14px;&quot;&gt;&lt;span style=&quot;white-space: pre;&quot;&gt;&#x9;&lt;/span&gt;&lt;span style=&quot;white-space: pre;&quot;&gt;&#x9;&lt;/span&gt;&lt;span style=&quot;white-space: pre;&quot;&gt;&#x9;&lt;/span&gt;&lt;br&gt;&lt;/div&gt;&lt;div style=&quot;font-size: 14px;&quot;&gt;&lt;br&gt;&lt;/div&gt;" style="text;html=1;align=left;verticalAlign=middle;resizable=0;points=[];autosize=1;strokeColor=none;fillColor=none;" vertex="1" parent="1">
          <mxGeometry x="840" y="98" width="650" height="320" as="geometry" />
        </mxCell>
      </root>
    </mxGraphModel>
  </diagram>
</mxfile>
